<svg xmlns="http://www.w3.org/2000/svg" width="512" height="512" viewBox="0 0 512 512">
  <defs>
    <linearGradient id="coral" x1="0" y1="0" x2="512" y2="512" gradientUnits="userSpaceOnUse">
      <stop offset="0" stop-color="#E08763"/>
      <stop offset="0.5" stop-color="#D2724F"/>
      <stop offset="1" stop-color="#B9532F"/>
    </linearGradient>
    <radialGradient id="glow" cx="0.32" cy="0.24" r="0.9">
      <stop offset="0" stop-color="#FBF7EF" stop-opacity="0.18"/>
      <stop offset="0.55" stop-color="#FBF7EF" stop-opacity="0"/>
    </radialGradient>
  </defs>
  <path d="M512.00,256.00 L511.96,312.11 L511.85,330.89 L511.67,344.65 L511.41,355.91 L511.09,365.59 L510.68,374.18 L510.21,381.94 L509.65,389.05 L509.03,395.63 L508.33,401.77 L507.55,407.52 L506.70,412.94 L505.78,418.07 L504.77,422.93 L503.69,427.56 L502.53,431.98 L501.30,436.19 L499.98,440.22 L498.59,444.08 L497.11,447.78 L495.55,451.33 L493.90,454.74 L492.18,458.01 L490.36,461.15 L488.46,464.17 L486.47,467.07 L484.39,469.86 L482.21,472.54 L479.94,475.11 L477.58,477.58 L475.11,479.94 L472.54,482.21 L469.86,484.39 L467.07,486.47 L464.17,488.46 L461.15,490.36 L458.01,492.18 L454.74,493.90 L451.33,495.55 L447.78,497.11 L444.08,498.59 L440.22,499.98 L436.19,501.30 L431.98,502.53 L427.56,503.69 L422.93,504.77 L418.07,505.78 L412.94,506.70 L407.52,507.55 L401.77,508.33 L395.63,509.03 L389.05,509.65 L381.94,510.21 L374.18,510.68 L365.59,511.09 L355.91,511.41 L344.65,511.67 L330.89,511.85 L312.11,511.96 L256.00,512.00 L199.89,511.96 L181.11,511.85 L167.35,511.67 L156.09,511.41 L146.41,511.09 L137.82,510.68 L130.06,510.21 L122.95,509.65 L116.37,509.03 L110.23,508.33 L104.48,507.55 L99.06,506.70 L93.93,505.78 L89.07,504.77 L84.44,503.69 L80.02,502.53 L75.81,501.30 L71.78,499.98 L67.92,498.59 L64.22,497.11 L60.67,495.55 L57.26,493.90 L53.99,492.18 L50.85,490.36 L47.83,488.46 L44.93,486.47 L42.14,484.39 L39.46,482.21 L36.89,479.94 L34.42,477.58 L32.06,475.11 L29.79,472.54 L27.61,469.86 L25.53,467.07 L23.54,464.17 L21.64,461.15 L19.82,458.01 L18.10,454.74 L16.45,451.33 L14.89,447.78 L13.41,444.08 L12.02,440.22 L10.70,436.19 L9.47,431.98 L8.31,427.56 L7.23,422.93 L6.22,418.07 L5.30,412.94 L4.45,407.52 L3.67,401.77 L2.97,395.63 L2.35,389.05 L1.79,381.94 L1.32,374.18 L0.91,365.59 L0.59,355.91 L0.33,344.65 L0.15,330.89 L0.04,312.11 L0.00,256.00 L0.04,199.89 L0.15,181.11 L0.33,167.35 L0.59,156.09 L0.91,146.41 L1.32,137.82 L1.79,130.06 L2.35,122.95 L2.97,116.37 L3.67,110.23 L4.45,104.48 L5.30,99.06 L6.22,93.93 L7.23,89.07 L8.31,84.44 L9.47,80.02 L10.70,75.81 L12.02,71.78 L13.41,67.92 L14.89,64.22 L16.45,60.67 L18.10,57.26 L19.82,53.99 L21.64,50.85 L23.54,47.83 L25.53,44.93 L27.61,42.14 L29.79,39.46 L32.06,36.89 L34.42,34.42 L36.89,32.06 L39.46,29.79 L42.14,27.61 L44.93,25.53 L47.83,23.54 L50.85,21.64 L53.99,19.82 L57.26,18.10 L60.67,16.45 L64.22,14.89 L67.92,13.41 L71.78,12.02 L75.81,10.70 L80.02,9.47 L84.44,8.31 L89.07,7.23 L93.93,6.22 L99.06,5.30 L104.48,4.45 L110.23,3.67 L116.37,2.97 L122.95,2.35 L130.06,1.79 L137.82,1.32 L146.41,0.91 L156.09,0.59 L167.35,0.33 L181.11,0.15 L199.89,0.04 L256.00,0.00 L312.11,0.04 L330.89,0.15 L344.65,0.33 L355.91,0.59 L365.59,0.91 L374.18,1.32 L381.94,1.79 L389.05,2.35 L395.63,2.97 L401.77,3.67 L407.52,4.45 L412.94,5.30 L418.07,6.22 L422.93,7.23 L427.56,8.31 L431.98,9.47 L436.19,10.70 L440.22,12.02 L444.08,13.41 L447.78,14.89 L451.33,16.45 L454.74,18.10 L458.01,19.82 L461.15,21.64 L464.17,23.54 L467.07,25.53 L469.86,27.61 L472.54,29.79 L475.11,32.06 L477.58,34.42 L479.94,36.89 L482.21,39.46 L484.39,42.14 L486.47,44.93 L488.46,47.83 L490.36,50.85 L492.18,53.99 L493.90,57.26 L495.55,60.67 L497.11,64.22 L498.59,67.92 L499.98,71.78 L501.30,75.81 L502.53,80.02 L503.69,84.44 L504.77,89.07 L505.78,93.93 L506.70,99.06 L507.55,104.48 L508.33,110.23 L509.03,116.37 L509.65,122.95 L510.21,130.06 L510.68,137.82 L511.09,146.41 L511.41,156.09 L511.67,167.35 L511.85,181.11 L511.96,199.89 Z" fill="url(#coral)"/>
  <path d="M512.00,256.00 L511.96,312.11 L511.85,330.89 L511.67,344.65 L511.41,355.91 L511.09,365.59 L510.68,374.18 L510.21,381.94 L509.65,389.05 L509.03,395.63 L508.33,401.77 L507.55,407.52 L506.70,412.94 L505.78,418.07 L504.77,422.93 L503.69,427.56 L502.53,431.98 L501.30,436.19 L499.98,440.22 L498.59,444.08 L497.11,447.78 L495.55,451.33 L493.90,454.74 L492.18,458.01 L490.36,461.15 L488.46,464.17 L486.47,467.07 L484.39,469.86 L482.21,472.54 L479.94,475.11 L477.58,477.58 L475.11,479.94 L472.54,482.21 L469.86,484.39 L467.07,486.47 L464.17,488.46 L461.15,490.36 L458.01,492.18 L454.74,493.90 L451.33,495.55 L447.78,497.11 L444.08,498.59 L440.22,499.98 L436.19,501.30 L431.98,502.53 L427.56,503.69 L422.93,504.77 L418.07,505.78 L412.94,506.70 L407.52,507.55 L401.77,508.33 L395.63,509.03 L389.05,509.65 L381.94,510.21 L374.18,510.68 L365.59,511.09 L355.91,511.41 L344.65,511.67 L330.89,511.85 L312.11,511.96 L256.00,512.00 L199.89,511.96 L181.11,511.85 L167.35,511.67 L156.09,511.41 L146.41,511.09 L137.82,510.68 L130.06,510.21 L122.95,509.65 L116.37,509.03 L110.23,508.33 L104.48,507.55 L99.06,506.70 L93.93,505.78 L89.07,504.77 L84.44,503.69 L80.02,502.53 L75.81,501.30 L71.78,499.98 L67.92,498.59 L64.22,497.11 L60.67,495.55 L57.26,493.90 L53.99,492.18 L50.85,490.36 L47.83,488.46 L44.93,486.47 L42.14,484.39 L39.46,482.21 L36.89,479.94 L34.42,477.58 L32.06,475.11 L29.79,472.54 L27.61,469.86 L25.53,467.07 L23.54,464.17 L21.64,461.15 L19.82,458.01 L18.10,454.74 L16.45,451.33 L14.89,447.78 L13.41,444.08 L12.02,440.22 L10.70,436.19 L9.47,431.98 L8.31,427.56 L7.23,422.93 L6.22,418.07 L5.30,412.94 L4.45,407.52 L3.67,401.77 L2.97,395.63 L2.35,389.05 L1.79,381.94 L1.32,374.18 L0.91,365.59 L0.59,355.91 L0.33,344.65 L0.15,330.89 L0.04,312.11 L0.00,256.00 L0.04,199.89 L0.15,181.11 L0.33,167.35 L0.59,156.09 L0.91,146.41 L1.32,137.82 L1.79,130.06 L2.35,122.95 L2.97,116.37 L3.67,110.23 L4.45,104.48 L5.30,99.06 L6.22,93.93 L7.23,89.07 L8.31,84.44 L9.47,80.02 L10.70,75.81 L12.02,71.78 L13.41,67.92 L14.89,64.22 L16.45,60.67 L18.10,57.26 L19.82,53.99 L21.64,50.85 L23.54,47.83 L25.53,44.93 L27.61,42.14 L29.79,39.46 L32.06,36.89 L34.42,34.42 L36.89,32.06 L39.46,29.79 L42.14,27.61 L44.93,25.53 L47.83,23.54 L50.85,21.64 L53.99,19.82 L57.26,18.10 L60.67,16.45 L64.22,14.89 L67.92,13.41 L71.78,12.02 L75.81,10.70 L80.02,9.47 L84.44,8.31 L89.07,7.23 L93.93,6.22 L99.06,5.30 L104.48,4.45 L110.23,3.67 L116.37,2.97 L122.95,2.35 L130.06,1.79 L137.82,1.32 L146.41,0.91 L156.09,0.59 L167.35,0.33 L181.11,0.15 L199.89,0.04 L256.00,0.00 L312.11,0.04 L330.89,0.15 L344.65,0.33 L355.91,0.59 L365.59,0.91 L374.18,1.32 L381.94,1.79 L389.05,2.35 L395.63,2.97 L401.77,3.67 L407.52,4.45 L412.94,5.30 L418.07,6.22 L422.93,7.23 L427.56,8.31 L431.98,9.47 L436.19,10.70 L440.22,12.02 L444.08,13.41 L447.78,14.89 L451.33,16.45 L454.74,18.10 L458.01,19.82 L461.15,21.64 L464.17,23.54 L467.07,25.53 L469.86,27.61 L472.54,29.79 L475.11,32.06 L477.58,34.42 L479.94,36.89 L482.21,39.46 L484.39,42.14 L486.47,44.93 L488.46,47.83 L490.36,50.85 L492.18,53.99 L493.90,57.26 L495.55,60.67 L497.11,64.22 L498.59,67.92 L499.98,71.78 L501.30,75.81 L502.53,80.02 L503.69,84.44 L504.77,89.07 L505.78,93.93 L506.70,99.06 L507.55,104.48 L508.33,110.23 L509.03,116.37 L509.65,122.95 L510.21,130.06 L510.68,137.82 L511.09,146.41 L511.41,156.09 L511.67,167.35 L511.85,181.11 L511.96,199.89 Z" fill="url(#glow)"/>
  <g transform="rotate(45 256 256)"><rect x="162" y="162" width="188" height="188" rx="36" fill="#F6F1E7"/><rect x="198" y="114" width="24" height="46" rx="12" fill="#F6F1E7"/><rect x="198" y="352" width="24" height="46" rx="12" fill="#F6F1E7"/><rect x="114" y="198" width="46" height="24" rx="12" fill="#F6F1E7"/><rect x="352" y="198" width="46" height="24" rx="12" fill="#F6F1E7"/><rect x="244" y="114" width="24" height="46" rx="12" fill="#F6F1E7"/><rect x="244" y="352" width="24" height="46" rx="12" fill="#F6F1E7"/><rect x="114" y="244" width="46" height="24" rx="12" fill="#F6F1E7"/><rect x="352" y="244" width="46" height="24" rx="12" fill="#F6F1E7"/><rect x="290" y="114" width="24" height="46" rx="12" fill="#F6F1E7"/><rect x="290" y="352" width="24" height="46" rx="12" fill="#F6F1E7"/><rect x="114" y="290" width="46" height="24" rx="12" fill="#F6F1E7"/><rect x="352" y="290" width="46" height="24" rx="12" fill="#F6F1E7"/><circle cx="256" cy="90" r="12" fill="#F6F1E7"/><circle cx="256" cy="422" r="12" fill="#F6F1E7"/><circle cx="90" cy="256" r="12" fill="#F6F1E7"/><circle cx="422" cy="256" r="12" fill="#F6F1E7"/></g>
</svg>