<svg width="660" height="168" viewBox="0 0 660 168" fill="none" xmlns="http://www.w3.org/2000/svg" role="img" aria-label="MikroTik MCP — the complete RouterOS MCP server">
  <defs>
    <linearGradient id="coral" x1="24" y1="18" x2="150" y2="150" gradientUnits="userSpaceOnUse">
      <stop offset="0" stop-color="#E08763"/>
      <stop offset="0.5" stop-color="#D2724F"/>
      <stop offset="1" stop-color="#B9532F"/>
    </linearGradient>
    <radialGradient id="glow" cx="0.5" cy="0.42" r="0.62">
      <stop offset="0" stop-color="#FBF7EF" stop-opacity="0.20"/>
      <stop offset="1" stop-color="#FBF7EF" stop-opacity="0"/>
    </radialGradient>
    <filter id="soft" x="-30%" y="-30%" width="160%" height="170%">
      <feDropShadow dx="0" dy="7" stdDeviation="10" flood-color="#5A2412" flood-opacity="0.28"/>
    </filter>
    <clipPath id="sq">
      <path d="M 492.00,256.00 L 491.68,334.04 L 490.73,361.35 L 489.14,381.37 L 486.91,397.63 L 484.01,411.43 L 480.45,423.42 L 476.20,433.97 L 471.23,443.31 L 465.50,451.62 L 458.99,458.99 L 451.62,465.50 L 443.31,471.23 L 433.97,476.20 L 423.42,480.45 L 411.43,484.01 L 397.63,486.91 L 381.37,489.14 L 361.35,490.73 L 334.04,491.68 L 256.00,492.00 L 177.96,491.68 L 150.65,490.73 L 130.63,489.14 L 114.37,486.91 L 100.57,484.01 L 88.58,480.45 L 78.03,476.20 L 68.69,471.23 L 60.38,465.50 L 53.01,458.99 L 46.50,451.62 L 40.77,443.31 L 35.80,433.97 L 31.55,423.42 L 27.99,411.43 L 25.09,397.63 L 22.86,381.37 L 21.27,361.35 L 20.32,334.04 L 20.00,256.00 L 20.32,177.96 L 21.27,150.65 L 22.86,130.63 L 25.09,114.37 L 27.99,100.57 L 31.55,88.58 L 35.80,78.03 L 40.77,68.69 L 46.50,60.38 L 53.01,53.01 L 60.38,46.50 L 68.69,40.77 L 78.03,35.80 L 88.58,31.55 L 100.57,27.99 L 114.37,25.09 L 130.63,22.86 L 150.65,21.27 L 177.96,20.32 L 256.00,20.00 L 334.04,20.32 L 361.35,21.27 L 381.37,22.86 L 397.63,25.09 L 411.43,27.99 L 423.42,31.55 L 433.97,35.80 L 443.31,40.77 L 451.62,46.50 L 458.99,53.01 L 465.50,60.38 L 471.23,68.69 L 476.20,78.03 L 480.45,88.58 L 484.01,100.57 L 486.91,114.37 L 489.14,130.63 L 490.73,150.65 L 491.68,177.96 L 492.00,256.00 Z"/>
    </clipPath>
  </defs>

  <!-- icon tile (squircle) -->
  <g transform="translate(20,22)" filter="url(#soft)">
    <g transform="scale(0.2421875)">
      <path clip-path="url(#sq)" fill="url(#coral)" d="M0 0h512v512H0z"/>
      <rect clip-path="url(#sq)" width="512" height="512" fill="url(#glow)"/>
      <g stroke="#F6F1E7" stroke-width="15" stroke-linecap="round" opacity="0.96">
        <line x1="240" y1="236" x2="140" y2="136"/>
        <line x1="240" y1="236" x2="340" y2="136"/>
        <line x1="240" y1="236" x2="140" y2="336"/>
        <line x1="240" y1="236" x2="340" y2="336"/>
      </g>
      <circle cx="240" cy="236" r="42" fill="#F6F1E7"/>
      <circle cx="140" cy="136" r="25" fill="#F6F1E7"/>
      <circle cx="340" cy="136" r="25" fill="#F6F1E7"/>
      <circle cx="140" cy="336" r="25" fill="#F6F1E7"/>
      <circle cx="340" cy="336" r="25" fill="#F6F1E7"/>
      <path d="M225 221 L240 236 L225 251" fill="none" stroke="#B9532F" stroke-width="8" stroke-linecap="round" stroke-linejoin="round"/>
      <g transform="translate(326 400)">
        <rect width="122" height="54" rx="18" fill="#F6F1E7"/>
        <text x="61" y="37" text-anchor="middle" font-family="-apple-system, 'SF Pro Display', 'Segoe UI', Roboto, Helvetica, Arial, sans-serif" font-size="28" font-weight="800" letter-spacing="1.5" fill="#B9532F">MCP</text>
      </g>
    </g>
  </g>

  <!-- wordmark -->
  <g font-family="-apple-system, BlinkMacSystemFont, 'SF Pro Display', 'Segoe UI', Roboto, Helvetica, Arial, sans-serif">
    <text x="178" y="80" font-size="48" font-weight="800" fill="#1C1A17" letter-spacing="-1.5">MikroTik <tspan fill="#C75F38">MCP</tspan></text>
    <text x="180" y="118" font-size="20" font-weight="600" fill="#8A7D74" letter-spacing="0.3">The complete RouterOS MCP server &#183; 790+ tools</text>
  </g>
</svg>
